PathFileType	4	(X/Y/Z)	SUBJ94_0_static_RCNL2025.trc
DataRate	CameraRate	NumFrames	NumMarkers	Units	OrigDataRate	OrigDataStartFrame	OrigNumFrames
100	100	9	25	mm	100	57	227
Frame#	Time	R_Shoulder			L_Shoulder			C7			J_Notch			R_Elbow			L_Elbow			R_Wrist			L_Wrist			R_Asis			L_Asis			Sacral			Thoracic			Sternum			R_Thigh_Lateral			R_Knee_Lateral			R_Shank_Lateral			R_Ankle_Lateral			R_Heel			R_Toe			L_Thigh_Lateral			L_Knee_Lateral			L_Shank_Lateral			L_Ankle_Lateral			L_Heel			L_Toe		
		X1	Y1	Z1	X2	Y2	Z2	X3	Y3	Z3	X4	Y4	Z4	X5	Y5	Z5	X6	Y6	Z6	X7	Y7	Z7	X8	Y8	Z8	X9	Y9	Z9	X10	Y10	Z10	X11	Y11	Z11	X12	Y12	Z12	X13	Y13	Z13	X14	Y14	Z14	X15	Y15	Z15	X16	Y16	Z16	X17	Y17	Z17	X18	Y18	Z18	X19	Y19	Z19	X20	Y20	Z20	X21	Y21	Z21	X22	Y22	Z22	X23	Y23	Z23	X24	Y24	Z24	X25	Y25	Z25
57	0.56000000	-292.100800	1270.061035	-56.419216	-276.855377	1283.245850	-433.946350	-337.677429	1352.279053	-243.001572	-223.502304	1263.547852	-248.342911	-359.968048	1018.551636	60.890942	-342.341095	1029.350098	-549.149170	-336.867538	804.948456	126.632977	-300.875076	802.055054	-582.861664	-216.229721	881.812317	-117.365517	-199.077530	872.145813	-344.031921	-397.746582	939.887329	-254.039795	-399.983582	1149.361694	-254.616623	-183.914658	1070.661621	-240.345551	-307.984436	537.380371	-58.355667	-326.538086	444.301758	-116.279366	-348.820801	261.164276	-75.300644	-361.046387	55.834858	-158.191483	-404.388550	52.599636	-206.223801	-226.279907	37.924599	-188.013474	-292.223511	535.660645	-428.625153	-319.587616	439.457703	-373.480042	-336.159485	259.788269	-437.061615	-358.951691	56.773605	-331.703461	-399.388062	46.576828	-283.468903	-233.171066	42.495045	-300.178864
58	0.57000000	-292.058990	1270.021118	-56.438992	-276.798798	1283.252441	-433.919647	-337.618774	1352.278809	-242.904663	-223.470871	1263.556396	-248.363174	-359.932556	1018.575134	60.971001	-342.270203	1029.355591	-549.127441	-336.871292	804.985992	126.737576	-300.869980	802.067017	-582.875000	-216.228897	881.804260	-117.408325	-198.982285	872.164734	-343.996124	-397.791931	939.929810	-254.016998	-399.921509	1149.351440	-254.560410	-183.811279	1070.661743	-240.263702	-307.969727	537.371155	-58.377281	-326.495483	444.377258	-116.335861	-348.812286	261.172638	-75.330040	-361.131073	55.845276	-158.229752	-404.388000	52.627419	-206.222305	-226.348007	37.928947	-188.037979	-292.234467	535.642761	-428.668396	-319.724915	439.461792	-373.511536	-336.230499	259.810577	-437.057526	-358.940399	56.800751	-331.754639	-399.366058	46.568676	-283.513275	-233.162354	42.497070	-300.201996
59	0.58000000	-291.943085	1270.025269	-56.402760	-276.754822	1283.264160	-433.861328	-337.616577	1352.291138	-242.910187	-223.541458	1263.555420	-248.300171	-359.895447	1018.671204	60.999607	-342.252319	1029.372803	-549.114746	-336.850113	804.890869	126.768112	-300.869019	802.105774	-582.851105	-216.227554	881.809814	-117.413818	-199.071655	872.148499	-344.031403	-397.729309	939.945312	-254.046738	-399.898285	1149.360474	-254.583038	-183.802048	1070.615356	-240.249619	-307.911774	537.443665	-58.397919	-326.511719	444.435791	-116.293663	-348.742279	261.227325	-75.362648	-360.939880	55.864616	-158.257538	-404.335052	52.584301	-206.279739	-226.394547	37.957813	-188.064102	-292.306183	535.676025	-428.727051	-319.743073	439.450806	-373.502502	-336.250214	259.855743	-437.063293	-358.883087	56.810623	-331.798370	-399.400574	46.621265	-283.474670	-233.219635	42.510082	-300.229675
60	0.59000000	-291.855835	1270.032471	-56.370865	-276.738098	1283.323975	-433.797455	-337.587372	1352.346924	-242.794983	-223.445358	1263.549927	-248.225632	-359.810516	1018.653931	61.047157	-342.151703	1029.450806	-549.057800	-336.937027	805.013733	126.904099	-300.865601	802.153778	-582.845276	-216.253784	881.740662	-117.412521	-199.095215	872.161011	-344.033447	-397.627960	939.958679	-254.037567	-399.866760	1149.398071	-254.470383	-183.791534	1070.683472	-240.306946	-307.866974	537.434631	-58.457100	-326.495422	444.415497	-116.320816	-348.741760	261.217834	-75.380928	-360.861450	55.873535	-158.309387	-404.342865	52.671555	-206.276581	-226.262955	37.937519	-188.024475	-292.303467	535.675110	-428.753052	-319.742920	439.449646	-373.551727	-336.253326	259.802307	-437.113831	-358.937988	56.833981	-331.771149	-399.406708	46.641773	-283.457642	-233.151840	42.464436	-300.197571
61	0.60000000	-291.861176	1270.014771	-56.322384	-276.756744	1283.359131	-433.832123	-337.495850	1352.278320	-242.761551	-223.409836	1263.634521	-248.206177	-359.846710	1018.624878	61.184368	-342.168884	1029.489014	-549.011719	-336.990891	805.018494	127.100231	-300.855316	802.167358	-582.823700	-216.194550	881.741821	-117.503723	-199.118103	872.089722	-344.060394	-397.686768	939.970398	-254.093613	-399.858154	1149.432495	-254.511108	-183.782959	1070.691040	-240.294144	-307.916107	537.344421	-58.421040	-326.584290	444.404053	-116.368187	-348.864044	261.154358	-75.362694	-360.850677	55.798897	-158.320389	-404.371857	52.625706	-206.246552	-226.301392	37.934212	-188.010681	-292.288269	535.684326	-428.734344	-319.750153	439.436340	-373.553925	-336.283630	259.832123	-437.134674	-358.927216	56.813309	-331.770477	-399.405731	46.629333	-283.447388	-233.164505	42.447342	-300.162659
62	0.61000000	-291.904022	1269.940186	-56.289703	-276.693176	1283.322144	-433.703979	-337.518250	1352.287354	-242.737442	-223.293137	1263.640259	-248.145676	-359.907745	1018.623779	61.242149	-342.222382	1029.539795	-549.081299	-336.997574	805.035522	127.221092	-300.859726	802.191223	-582.752747	-216.175415	881.746094	-117.517517	-199.053253	872.076294	-344.149414	-397.694611	939.950867	-254.097977	-399.857025	1149.432373	-254.490143	-183.691071	1070.619629	-240.216690	-307.996796	537.327454	-58.491951	-326.630371	444.301086	-116.368179	-348.893829	261.268860	-75.327583	-360.924835	55.844498	-158.269897	-404.327240	52.538414	-206.283371	-226.361649	37.922401	-188.017593	-292.381317	535.588440	-428.705444	-319.821320	439.428741	-373.583649	-336.288788	259.778168	-437.103790	-358.927185	56.759609	-331.747528	-399.406952	46.567677	-283.467651	-233.180908	42.479401	-300.188782
63	0.62000000	-291.794861	1269.889648	-56.252056	-276.690979	1283.382935	-433.630005	-337.462097	1352.299072	-242.638412	-223.277817	1263.640137	-248.143097	-359.890778	1018.624451	61.322372	-342.175140	1029.535034	-548.998230	-337.001999	805.030640	127.225685	-300.756256	802.272186	-582.751862	-216.059799	881.732178	-117.477791	-199.020508	872.087280	-344.162598	-397.671173	939.927124	-254.165985	-399.810638	1149.426025	-254.409592	-183.680191	1070.615845	-240.210510	-308.003540	537.329895	-58.495510	-326.728638	444.317322	-116.405098	-348.916656	261.170746	-75.406578	-360.918640	55.814880	-158.286407	-404.358246	52.581524	-206.253342	-226.269180	37.896053	-188.073273	-292.394653	535.586731	-428.680145	-319.858521	439.454285	-373.617157	-336.287323	259.761841	-437.119812	-358.946045	56.779171	-331.735901	-399.371552	46.564411	-283.493378	-233.158829	42.482388	-300.200531
64	0.63000000	-291.786865	1269.927856	-56.139854	-276.685669	1283.442505	-433.620422	-337.472870	1352.304565	-242.617020	-223.171310	1263.618408	-248.079483	-359.892975	1018.648865	61.335705	-342.204956	1029.599487	-548.987061	-336.974747	805.064270	127.355106	-300.725433	802.353485	-582.750092	-216.040497	881.735046	-117.475494	-199.036942	872.064148	-344.155792	-397.592041	939.985962	-254.131714	-399.811707	1149.429565	-254.402023	-183.684341	1070.617676	-240.213470	-308.076416	537.333923	-58.550186	-326.712830	444.302521	-116.426270	-348.875305	261.322266	-75.375473	-361.001892	55.827782	-158.242203	-404.369843	52.606339	-206.235748	-226.271393	37.907597	-188.030319	-292.363800	535.590332	-428.743347	-319.834320	439.430511	-373.618774	-336.285492	259.784973	-437.111298	-358.972534	56.788177	-331.735992	-399.400757	46.607826	-283.462921	-233.161407	42.496422	-300.203217
65	0.64000000	-291.750824	1269.919922	-56.135876	-276.638336	1283.451538	-433.544312	-337.401794	1352.294556	-242.585037	-223.220627	1263.638672	-247.952759	-359.808838	1018.642578	61.406418	-342.159973	1029.627441	-548.970825	-337.035004	805.049988	127.427013	-300.732910	802.379517	-582.746002	-215.974792	881.737915	-117.547852	-199.025970	872.067383	-344.184204	-397.581146	940.010620	-254.220276	-399.729492	1149.410034	-254.347198	-183.700775	1070.612671	-240.185562	-308.099487	537.326843	-58.540466	-326.714355	444.341400	-116.416924	-348.936584	261.236603	-75.393166	-361.078430	55.837257	-158.304428	-404.327301	52.539890	-206.283340	-226.253586	37.889423	-188.049591	-292.349060	535.584229	-428.772583	-319.808777	439.437592	-373.693237	-336.280060	259.792114	-437.151184	-358.961243	56.809444	-331.728149	-399.376770	46.586376	-283.527588	-233.176178	42.475975	-300.197693
